<svg width="40" height="40" viewBox="0 0 40 40" fill="none" xmlns="http://www.w3.org/2000/svg">
<path fill-rule="evenodd" clip-rule="evenodd" d="M12.4487 10.7515C11.9801 10.2828 11.2203 10.2828 10.7517 10.7515C10.283 11.2201 10.283 11.9799 10.7517 12.4485L27.5517 29.2485C28.0203 29.7172 28.7801 29.7172 29.2487 29.2485C29.7174 28.7799 29.7174 28.0201 29.2487 27.5515L27.4809 25.7837C29.326 24.3109 30.727 22.3053 31.4511 20C29.9219 15.1315 25.3736 11.6 20.0005 11.6C18.0522 11.6 16.2123 12.0643 14.5855 12.8883L12.4487 10.7515ZM17.5619 15.8647L19.3786 17.6814C19.577 17.6283 19.7854 17.6 20.0005 17.6C21.326 17.6 22.4005 18.6745 22.4005 20C22.4005 20.2151 22.3722 20.4236 22.3191 20.6219L24.1358 22.4386C24.5581 21.7239 24.8005 20.8903 24.8005 20C24.8005 17.349 22.6515 15.2 20.0005 15.2C19.1102 15.2 18.2766 15.4424 17.5619 15.8647Z" fill="#7BC48C"/>
<path d="M22.9451 28.0361L19.6998 24.7907C17.2884 24.6417 15.3588 22.7121 15.2098 20.3007L10.8021 15.8931C9.80095 17.0867 9.02784 18.478 8.5498 20C10.0789 24.8686 14.6273 28.4 20.0004 28.4C21.0164 28.4 22.0029 28.2737 22.9451 28.0361Z" fill="#7BC48C"/>
</svg>
