<svg width="53" height="53" viewBox="0 0 53 53" fill="none" xmlns="http://www.w3.org/2000/svg">
<g clip-path="url(#clip0_965_384)">
<rect width="53" height="53" rx="26.5" fill="#C3C3C3"/>
<path d="M23.9167 13.5833L22.6251 14.875H16.1667V17.4583H17.4584V36.8333C17.4584 37.5078 17.7055 38.1955 18.1925 38.6825C18.6795 39.1695 19.3672 39.4166 20.0417 39.4166H32.9584C33.633 39.4166 34.3206 39.1695 34.8076 38.6825C35.2946 38.1955 35.5417 37.5078 35.5417 36.8333V17.4583H36.8334V14.875H30.3751L29.0834 13.5833H23.9167ZM20.0417 17.4583H32.9584V36.8333H20.0417V17.4583ZM22.6251 20.0416V34.25H25.2084V20.0416H22.6251ZM27.7917 20.0416V34.25H30.3751V20.0416H27.7917Z" fill="#525252"/>
</g>
<defs>
<clipPath id="clip0_965_384">
<rect width="53" height="53" rx="26.5" fill="white"/>
</clipPath>
</defs>
</svg>
