<svg width="39" height="39" viewBox="0 0 39 39" fill="none" xmlns="http://www.w3.org/2000/svg">
<g clip-path="url(#clip0_787_724)">
<path opacity="0.3" d="M21.125 27.625C19.3375 27.625 17.875 26.1625 17.875 24.375V14.625C17.875 12.8375 19.3375 11.375 21.125 11.375H30.875V8.125H8.125V30.875H30.875V27.625H21.125Z" fill="#39875B"/>
<path d="M34.125 11.83V8.125C34.125 6.3375 32.6625 4.875 30.875 4.875H8.125C6.32125 4.875 4.875 6.3375 4.875 8.125V30.875C4.875 32.6625 6.32125 34.125 8.125 34.125H30.875C32.6625 34.125 34.125 32.6625 34.125 30.875V27.17C35.0837 26.6012 35.75 25.5775 35.75 24.375V14.625C35.75 13.4225 35.0837 12.3825 34.125 11.83ZM32.5 14.625V24.375H21.125V14.625H32.5ZM8.125 30.875V8.125H30.875V11.375H21.125C19.3375 11.375 17.875 12.8375 17.875 14.625V24.375C17.875 26.1625 19.3375 27.625 21.125 27.625H30.875V30.875H8.125Z" fill="#39875B"/>
<path d="M26 21.9375C27.3462 21.9375 28.4375 20.8462 28.4375 19.5C28.4375 18.1538 27.3462 17.0625 26 17.0625C24.6538 17.0625 23.5625 18.1538 23.5625 19.5C23.5625 20.8462 24.6538 21.9375 26 21.9375Z" fill="#39875B"/>
</g>
<defs>
<clipPath id="clip0_787_724">
<rect width="39" height="39" fill="white"/>
</clipPath>
</defs>
</svg>
