<svg width="20" height="21" viewBox="0 0 20 21" fill="none" xmlns="http://www.w3.org/2000/svg">
<path d="M8.3335 2L7.50016 2.83333H3.3335V4.5H4.16683V17C4.16683 17.4352 4.32627 17.8788 4.64046 18.193C4.95465 18.5072 5.39831 18.6667 5.8335 18.6667H14.1668C14.602 18.6667 15.0457 18.5072 15.3599 18.193C15.6741 17.8788 15.8335 17.4352 15.8335 17V4.5H16.6668V2.83333H12.5002L11.6668 2H8.3335ZM5.8335 4.5H14.1668V17H5.8335V4.5ZM7.50016 6.16667V15.3333H9.16683V6.16667H7.50016ZM10.8335 6.16667V15.3333H12.5002V6.16667H10.8335Z" fill="#FF0000"/>
</svg>
