<svg width="53" height="54" viewBox="0 0 53 54" fill="none" xmlns="http://www.w3.org/2000/svg">
<g clip-path="url(#clip0_443_1419)">
<rect y="0.5" width="53" height="53" rx="26.5" fill="#C3C3C3"/>
<path d="M33.5441 28.55C34.7062 28.55 35.7288 27.9145 36.2556 26.9535L41.8026 16.894C42.3758 15.871 41.6321 14.6 40.4546 14.6H17.5231L16.0666 11.5H11V14.6H14.0988L19.6768 26.3645L17.5851 30.1465C16.454 32.2235 17.9414 34.75 20.2965 34.75H38.8896V31.65H20.2965L22.0009 28.55H33.5441ZM18.995 17.7H37.8205L33.5441 25.45H22.6672L18.995 17.7ZM20.2965 36.3C18.5922 36.3 17.2132 37.695 17.2132 39.4C17.2132 41.105 18.5922 42.5 20.2965 42.5C22.0009 42.5 23.3954 41.105 23.3954 39.4C23.3954 37.695 22.0009 36.3 20.2965 36.3ZM35.7908 36.3C34.0864 36.3 32.7074 37.695 32.7074 39.4C32.7074 41.105 34.0864 42.5 35.7908 42.5C37.4952 42.5 38.8896 41.105 38.8896 39.4C38.8896 37.695 37.4952 36.3 35.7908 36.3Z" fill="#525252"/>
</g>
<defs>
<clipPath id="clip0_443_1419">
<rect y="0.5" width="53" height="53" rx="26.5" fill="white"/>
</clipPath>
</defs>
</svg>
