<svg width="33" height="32" viewBox="0 0 33 32" fill="none" xmlns="http://www.w3.org/2000/svg">
<g clip-path="url(#clip0_684_1205)">
<path d="M16.5 2.66663C9.14002 2.66663 3.16669 8.63996 3.16669 16C3.16669 23.36 9.14002 29.3333 16.5 29.3333C23.86 29.3333 29.8334 23.36 29.8334 16C29.8334 8.63996 23.86 2.66663 16.5 2.66663ZM16.5 6.66663C18.7134 6.66663 20.5 8.45329 20.5 10.6666C20.5 12.88 18.7134 14.6666 16.5 14.6666C14.2867 14.6666 12.5 12.88 12.5 10.6666C12.5 8.45329 14.2867 6.66663 16.5 6.66663ZM16.5 25.6C13.1667 25.6 10.22 23.8933 8.50002 21.3066C8.54002 18.6533 13.8334 17.2 16.5 17.2C19.1534 17.2 24.46 18.6533 24.5 21.3066C22.78 23.8933 19.8334 25.6 16.5 25.6Z" fill="black"/>
</g>
<defs>
<clipPath id="clip0_684_1205">
<rect width="32" height="32" fill="white" transform="translate(0.5)"/>
</clipPath>
</defs>
</svg>
