<svg width="20" height="20" viewBox="0 0 20 20" fill="none" xmlns="http://www.w3.org/2000/svg">
<path d="M8.3335 1.66669L7.50016 2.50002H3.3335V4.16669H4.16683V16.6667C4.16683 17.1019 4.32627 17.5455 4.64046 17.8597C4.95465 18.1739 5.39831 18.3334 5.8335 18.3334H14.1668C14.602 18.3334 15.0457 18.1739 15.3599 17.8597C15.6741 17.5455 15.8335 17.1019 15.8335 16.6667V4.16669H16.6668V2.50002H12.5002L11.6668 1.66669H8.3335ZM5.8335 4.16669H14.1668V16.6667H5.8335V4.16669ZM7.50016 5.83335V15H9.16683V5.83335H7.50016ZM10.8335 5.83335V15H12.5002V5.83335H10.8335Z" fill="black"/>
</svg>
