<svg width="86" height="86" viewBox="0 0 86 86" fill="none" xmlns="http://www.w3.org/2000/svg">
<circle cx="43" cy="43" r="43" fill="#C72D2D"/>
<g clip-path="url(#clip0_706_545)">
<path d="M54.025 40.06C53.005 34.885 48.46 31 43 31C40.78 31 38.725 31.645 36.985 32.755L39.175 34.945C40.315 34.345 41.62 34 43 34C47.56 34 51.25 37.69 51.25 42.25V43H53.5C55.99 43 58 45.01 58 47.5C58 49.195 57.04 50.665 55.66 51.43L57.835 53.605C59.74 52.24 61 50.02 61 47.5C61 43.54 57.925 40.33 54.025 40.06ZM29.5 32.905L33.625 37.015C28.84 37.225 25 41.155 25 46C25 50.965 29.035 55 34 55H51.595L54.595 58L56.5 56.095L31.405 31L29.5 32.905ZM36.595 40L48.595 52H34C30.685 52 28 49.315 28 46C28 42.685 30.685 40 34 40H36.595Z" fill="white"/>
</g>
<defs>
<clipPath id="clip0_706_545">
<rect width="36" height="36" fill="white" transform="translate(25 25)"/>
</clipPath>
</defs>
</svg>
