<svg width="20" height="20" viewBox="0 0 20 20" fill="none" xmlns="http://www.w3.org/2000/svg">
<g clip-path="url(#clip0_792_933)">
<path d="M4.1665 6.66663H5.83317V13.3333H4.1665V6.66663ZM9.99984 6.66663H7.49984C7.0415 6.66663 6.6665 7.04163 6.6665 7.49996V12.5C6.6665 12.9583 7.0415 13.3333 7.49984 13.3333H9.99984C10.4582 13.3333 10.8332 12.9583 10.8332 12.5V7.49996C10.8332 7.04163 10.4582 6.66663 9.99984 6.66663ZM9.1665 11.6666H8.33317V8.33329H9.1665V11.6666ZM14.9998 6.66663H12.4998C12.0415 6.66663 11.6665 7.04163 11.6665 7.49996V12.5C11.6665 12.9583 12.0415 13.3333 12.4998 13.3333H14.9998C15.4582 13.3333 15.8332 12.9583 15.8332 12.5V7.49996C15.8332 7.04163 15.4582 6.66663 14.9998 6.66663ZM14.1665 11.6666H13.3332V8.33329H14.1665V11.6666Z" fill="black"/>
<path d="M1.6665 3.33337V16.6667H18.3332V3.33337H1.6665ZM3.33317 15V5.00004H16.6665V15H3.33317Z" fill="black"/>
</g>
<defs>
<clipPath id="clip0_792_933">
<rect width="20" height="20" fill="white"/>
</clipPath>
</defs>
</svg>
