<svg width="35" height="35" viewBox="0 0 35 35" fill="none" xmlns="http://www.w3.org/2000/svg">
<rect width="35" height="35" rx="17.5" fill="#ECECEC"/>
<path d="M15.583 24.3028C16.0535 24.2032 18.9205 24.2032 19.391 24.3028C19.7932 24.3957 20.2282 24.6127 20.2282 25.0867C20.2048 25.5379 19.9401 25.9379 19.5743 26.192C19.1001 26.5616 18.5435 26.7958 17.9617 26.8801C17.6399 26.9219 17.3238 26.9228 17.0132 26.8801C16.4305 26.7958 15.8739 26.5616 15.4006 26.191C15.0339 25.9379 14.7692 25.5379 14.7458 25.0867C14.7458 24.6127 15.1808 24.3957 15.583 24.3028ZM17.5426 8.08826C19.5004 8.08826 21.5002 9.01722 22.6882 10.5585C23.459 11.551 23.8125 12.5425 23.8125 14.0838V14.4848C23.8125 15.6669 24.125 16.3636 24.8125 17.1665C25.3335 17.758 25.5 18.5172 25.5 19.341C25.5 20.1638 25.2297 20.9449 24.6881 21.579C23.979 22.3392 22.9791 22.8246 21.9586 22.9089C20.4797 23.035 18.9999 23.1412 17.5005 23.1412C16.0001 23.1412 14.5212 23.0777 13.0424 22.9089C12.0209 22.8246 11.021 22.3392 10.3129 21.579C9.77127 20.9449 9.5 20.1638 9.5 19.341C9.5 18.5172 9.66744 17.758 10.1875 17.1665C10.8966 16.3636 11.1884 15.6669 11.1884 14.4848V14.0838C11.1884 12.5008 11.5831 11.4657 12.396 10.4524C13.6045 8.97456 15.5417 8.08826 17.4584 8.08826H17.5426Z" fill="#4F9D69"/>
</svg>
