<svg width="53" height="53" viewBox="0 0 53 53" fill="none" xmlns="http://www.w3.org/2000/svg">
<g clip-path="url(#clip0_965_377)">
<rect width="53" height="53" rx="26.5" fill="#C3C3C3"/>
<g clip-path="url(#clip1_965_377)">
<path d="M31.6667 25.2083C33.8109 25.2083 35.5288 23.4775 35.5288 21.3333C35.5288 19.1891 33.8109 17.4583 31.6667 17.4583C29.5226 17.4583 27.7917 19.1891 27.7917 21.3333C27.7917 23.4775 29.5226 25.2083 31.6667 25.2083ZM21.3334 25.2083C23.4776 25.2083 25.1955 23.4775 25.1955 21.3333C25.1955 19.1891 23.4776 17.4583 21.3334 17.4583C19.1892 17.4583 17.4584 19.1891 17.4584 21.3333C17.4584 23.4775 19.1892 25.2083 21.3334 25.2083ZM21.3334 27.7916C18.3238 27.7916 12.2917 29.3029 12.2917 32.3125V35.5416H30.3751V32.3125C30.3751 29.3029 24.343 27.7916 21.3334 27.7916ZM31.6667 27.7916C31.2922 27.7916 30.8659 27.8175 30.4138 27.8562C31.9122 28.9412 32.9584 30.4008 32.9584 32.3125V35.5416H40.7084V32.3125C40.7084 29.3029 34.6763 27.7916 31.6667 27.7916Z" fill="#525252"/>
</g>
</g>
<defs>
<clipPath id="clip0_965_377">
<rect width="53" height="53" rx="26.5" fill="white"/>
</clipPath>
<clipPath id="clip1_965_377">
<rect width="31" height="31" fill="white" transform="translate(11 11)"/>
</clipPath>
</defs>
</svg>
